<?xml version="1.0" encoding="UTF-8"?>
<svg version="1.1" xmlns="http://www.w3.org/2000/svg" width="160" height="160">
<path d="M0 0 C52.8 0 105.6 0 160 0 C160 52.8 160 105.6 160 160 C107.2 160 54.4 160 0 160 C0 107.2 0 54.4 0 0 Z " fill="#5374DE" transform="translate(0,0)"/>
<path d="M0 0 C0.66 0.33 1.32 0.66 2 1 C1.0925 1.94875 0.185 2.8975 -0.75 3.875 C-7.40696636 11.8097253 -8.81800077 20.0701019 -8.390625 30.21484375 C-7.87913048 35.17122566 -6.60889275 38.7967839 -4 43 C-3.4225 44.03125 -2.845 45.0625 -2.25 46.125 C3.11344132 52.97828613 9.36571431 58.12201508 18 60 C28.50318334 61.20450559 38.47695382 60.80405845 47.23828125 54.3515625 C54.27184169 48.46240221 60.26813842 41.55813412 61.18798828 32.05859375 C61.48512082 25.66800441 61.48716407 19.2509254 60 13 C68.73470643 20.98601731 73.04704428 30.84693443 74.421875 42.609375 C74.96874493 57.01028323 70.48146234 71.23114875 60.8125 82.0625 C52.14598157 91.40985785 39.78513802 98.65006073 26.80078125 99.3359375 C10.21371757 99.6717526 -2.55607202 95.28806561 -14.8125 83.6875 C-25.5338936 72.2960193 -29.85220583 58.40313078 -29.47265625 42.80859375 C-28.65279549 36.20227771 -26.44706751 30.16136642 -24 24 C-23.67 24 -23.34 24 -23 24 C-22.98582031 24.65484375 -22.97164062 25.3096875 -22.95703125 25.984375 C-22.54919892 33.78830172 -20.32528221 39.96905273 -17 47 C-17.16008545 46.4212915 -17.3201709 45.84258301 -17.48510742 45.24633789 C-19.76046379 35.31956978 -19.04137144 22.88576921 -14 14 C-10.12965764 8.210956 -6.14036943 3.37720318 0 0 Z " fill="#FCFCFE" transform="translate(54,34)"/>
<path d="M0 0 C-1.299375 0.7734375 -1.299375 0.7734375 -2.625 1.5625 C-7.47507947 4.79205529 -11.91607151 9.49995128 -14 15 C-14.87298738 23.32554285 -15.06440578 31.54485176 -10.69140625 38.9453125 C-6.23235491 44.36208156 0.57748371 48.35462512 7.54296875 49.37109375 C16.18596672 49.5881262 22.2329896 47.11187815 28.875 41.625 C33.21157749 36.26805134 35.43623617 31.90610696 36 25 C36.33 25 36.66 25 37 25 C38.0512717 34.88974116 35.44377814 42.35903962 29.2890625 50.171875 C23.44935585 56.35509381 17.24485059 59.67762148 8.6953125 60.203125 C-2.41253294 60.34896105 -8.56422339 58.27539686 -17 51 C-24.25630189 42.95923304 -25.65813063 35.72197632 -25.39453125 25.1875 C-24.91388194 17.71450721 -21.81499325 11.81050363 -16.55078125 6.5546875 C-6.01933949 -2.229385 -6.01933949 -2.229385 0 0 Z " fill="#F8F9FD" transform="translate(75,29)"/>
<path d="M0 0 C0.66 0.33 1.32 0.66 2 1 C2.63435462 7.97790081 1.12172583 12.33127471 -3 18 C-7.19243495 22.63078606 -11.64392211 24.69952471 -17.8359375 25.25390625 C-24.11008478 25.49402794 -28.15672478 25.38201091 -33 21 C-35.06049315 19.04443937 -37.03674521 17.05674311 -39 15 C-38.67 14.34 -38.34 13.68 -38 13 C-36.88625 13.66 -35.7725 14.32 -34.625 15 C-28.55187038 18.01510499 -22.37901097 17.95934628 -15.9375 16 C-9.86210391 13.39449477 -3.93248259 8.44758335 -0.9375 2.5 C-0.628125 1.675 -0.31875 0.85 0 0 Z " fill="#F5F7FD" transform="translate(107,49)"/>
</svg>
